<?xml version="1.0" encoding="utf-8"?>
<!-- Generator: Adobe Illustrator 16.0.0, SVG Export Plug-In . SVG Version: 6.00 Build 0)  -->
<!DOCTYPE svg PUBLIC "-//W3C//DTD SVG 1.1//EN" "http://www.w3.org/Graphics/SVG/1.1/DTD/svg11.dtd">
<svg version="1.1" id="Capa_1" xmlns="http://www.w3.org/2000/svg" xmlns:xlink="http://www.w3.org/1999/xlink" x="0px" y="0px"
	 width="430.113px" height="430.114px" viewBox="0 0 430.113 430.114" enable-background="new 0 0 430.113 430.114"
	 xml:space="preserve">
<g>
	<path id="Facebook" fill="#FFFFFF" d="M158.571,84.432c0,10.747,0,58.709,0,58.709h-43.012v71.79h43.012v213.335h88.356V214.937
		h59.292c0,0,5.553-34.423,8.244-72.061c-7.718,0-67.202,0-67.202,0s0-41.765,0-49.085c0-7.336,9.634-17.205,19.155-17.205
		c9.504,0,29.563,0,48.141,0c0-9.774,0-43.546,0-74.737c-24.802,0-53.018,0-65.454,0C156.386,1.844,158.571,73.705,158.571,84.432z"
		/>
</g>
</svg>
