<?xml version="1.0" encoding="utf-8"?>
<!-- Generator: Adobe Illustrator 16.0.0, SVG Export Plug-In . SVG Version: 6.00 Build 0)  -->
<!DOCTYPE svg PUBLIC "-//W3C//DTD SVG 1.1//EN" "http://www.w3.org/Graphics/SVG/1.1/DTD/svg11.dtd">
<svg version="1.1" id="Capa_1" xmlns="http://www.w3.org/2000/svg" xmlns:xlink="http://www.w3.org/1999/xlink" x="0px" y="0px"
	 width="430.113px" height="430.114px" viewBox="0 0 430.113 430.114" enable-background="new 0 0 430.113 430.114"
	 xml:space="preserve">
<g>
	<circle fill="#FFFFFF" cx="97.18" cy="178.629" r="14.405"/>
	<circle fill="#FFFFFF" cx="239.464" cy="178.231" r="15.511"/>
	<path fill="#FFFFFF" d="M368.262,21.048H61.85c-30.907,0-55.961,25.058-55.961,55.961v181.852
		c0,30.907,25.054,55.964,55.961,55.964h108.223l36.809,86.722c0,0,2.534,7.519,8.67,7.519l0,0c6.136,0,8.67-7.519,8.67-7.519
		l36.809-86.722h107.231c30.906,0,55.961-25.057,55.961-55.964V77.009C424.223,46.106,399.169,21.048,368.262,21.048z
		 M137.319,181.801c-0.176,33.242-34.547,34.195-34.547,34.195c-13.292,0-20.799-8.814-20.799-8.814v5.994H56.943v-103.23
		c-0.105-0.017-0.113-0.038,0-0.061v0.061c1.55,0.248,25.029-0.061,25.029-0.061v39.483c5.888-10.036,22.914-9.871,22.914-9.871
		C141.951,142.952,137.319,181.801,137.319,181.801z M181.385,142.67v70.682h-24.5v-69.977c0-9.519-11.81-12.162-11.81-12.162
		v-24.677C184.205,108.123,181.385,142.67,181.385,142.67z M239.464,216.04c-22.683,0-41.07-16.926-41.07-37.808
		s18.387-37.809,41.07-37.809s41.069,16.927,41.069,37.809S262.146,216.04,239.464,216.04z M373.688,216.04
		c0,0,0.353,35.914-36.134,35.914h-11.105v-23.267h6.698c0,0,15.335,1.41,15.159-22.21c0,0-2.997,9.563-24.501,9.563
		c0,0-30.493-2.195-30.493-31.947v-11.28c0,0,0.705-30.847,34.194-33.314c0,0,13.22-1.41,21.328,9.519v-7.579h24.854V216.04z"/>
	<circle fill="#FFFFFF" cx="334.734" cy="178.231" r="15.159"/>
</g>
</svg>
