<?xml version="1.0" encoding="utf-8"?>
<!-- Generator: Adobe Illustrator 16.0.0, SVG Export Plug-In . SVG Version: 6.00 Build 0)  -->
<!DOCTYPE svg PUBLIC "-//W3C//DTD SVG 1.1//EN" "http://www.w3.org/Graphics/SVG/1.1/DTD/svg11.dtd">
<svg version="1.1" id="Capa_1" xmlns="http://www.w3.org/2000/svg" xmlns:xlink="http://www.w3.org/1999/xlink" x="0px" y="0px"
	 width="430.113px" height="430.114px" viewBox="0 0 430.113 430.114" enable-background="new 0 0 430.113 430.114"
	 xml:space="preserve">
<path fill="#FFFFFF" d="M394.742,353.187l31.814,30.71v1.015H265.2v-1.015l32.383-30.71c3.454-2.843,5.107-7.354,4.321-11.788
	V145.058c0-8.296,0-19.503,1.44-29.109L194.521,388.843h-1.293L80.524,137.781c-2.45-6.259-3.17-6.694-4.752-10.916v164.616
	c-1.35,11.011,0.502,22.192,5.326,32.16l45.341,60.256v1.015H6.106v-1.015L51.448,323.5c4.79-9.931,6.638-21.055,5.325-32.019
	V109.545c0.734-8.957-1.942-17.861-7.486-24.888L17.188,42.595v-1.019h115.153l96.439,212.637l84.926-212.637H426.41v1.019
	l-31.668,35.659c-3.79,2.805-5.69,7.541-4.89,12.226v250.918C389.009,345.966,390.932,350.6,394.742,353.187z"/>
</svg>
