<?xml version="1.0" encoding="utf-8"?>
<!-- Generator: Adobe Illustrator 16.0.0, SVG Export Plug-In . SVG Version: 6.00 Build 0)  -->
<!DOCTYPE svg PUBLIC "-//W3C//DTD SVG 1.1//EN" "http://www.w3.org/Graphics/SVG/1.1/DTD/svg11.dtd">
<svg version="1.1" id="Capa_1" xmlns="http://www.w3.org/2000/svg" xmlns:xlink="http://www.w3.org/1999/xlink" x="0px" y="0px"
	 width="200px" height="200px" viewBox="0 0 200 200" enable-background="new 0 0 200 200" xml:space="preserve">
<path fill="#FFFFFF" d="M200,37.987c-7.438,3.263-15.362,5.425-23.625,6.475c8.5-5.075,14.987-13.05,18.037-22.663
	c-7.925,4.725-16.675,8.063-26,9.925c-7.524-8.013-18.25-12.975-29.949-12.975c-22.7,0-40.976,18.425-40.976,41.013
	c0,3.25,0.275,6.375,0.95,9.35c-34.087-1.662-64.25-18-84.513-42.887c-3.537,6.137-5.612,13.163-5.612,20.725
	c0,14.2,7.313,26.787,18.212,34.075C19.938,80.9,13.475,78.987,8,75.975c0,0.125,0,0.288,0,0.45C8,96.35,22.212,112.9,40.85,116.713
	c-3.337,0.912-6.975,1.35-10.75,1.35c-2.625,0-5.275-0.15-7.763-0.7c5.313,16.237,20.388,28.175,38.313,28.563
	c-13.95,10.913-31.663,17.487-50.837,17.487c-3.362,0-6.587-0.149-9.813-0.563c18.163,11.713,39.688,18.4,62.9,18.4
	c75.45,0,116.7-62.5,116.7-116.675c0-1.813-0.063-3.563-0.149-5.3C187.588,53.5,194.425,46.288,200,37.987z"/>
</svg>
